<svg xmlns="http://www.w3.org/2000/svg" viewBox="0 0 1600 900" preserveAspectRatio="xMidYMid slice" class="cv-svg" aria-hidden="true" focusable="false"><g><path d="M-94 132H1314A46 46 0 0 1 1360 178V1066A46 46 0 0 1 1314 1112H-94A46 46 0 0 1 -140 1066V178A46 46 0 0 1 -94 132Z" fill="#252824"/><circle cx="162" cy="198" r="10" fill="#565B52"/><circle cx="196" cy="198" r="10" fill="#565B52"/><circle cx="230" cy="198" r="10" fill="#565B52"/><text x="280" y="210" class="cv-sans" font-size="34" font-weight="500" fill="#F1F2EA">the development loop</text><path d="M-140 260H1360" stroke="#FFFFFF" stroke-opacity="0.09" stroke-width="2"/><g><text x="150" y="336" class="cv-mono" font-size="46" font-weight="400" fill="#8F958A">1</text><text x="236" y="336" class="cv-mono" font-size="46" font-weight="400" fill="#B9BEB2">API</text><text x="236" y="336" class="cv-mono" font-size="46" font-weight="500" fill="#F1F2EA" data-el="row-0" opacity="1">API</text></g><g><text x="150" y="416" class="cv-mono" font-size="46" font-weight="400" fill="#8F958A">2</text><text x="236" y="416" class="cv-mono" font-size="46" font-weight="400" fill="#B9BEB2">spec</text><text x="236" y="416" class="cv-mono" font-size="46" font-weight="500" fill="#F1F2EA" data-el="row-1" opacity="0">spec</text></g><g><text x="150" y="496" class="cv-mono" font-size="46" font-weight="400" fill="#8F958A">3</text><text x="236" y="496" class="cv-mono" font-size="46" font-weight="400" fill="#B9BEB2">CLI + catalog + skill</text><text x="236" y="496" class="cv-mono" font-size="46" font-weight="500" fill="#F1F2EA" data-el="row-2" opacity="0">CLI + catalog + skill</text></g><g><text x="150" y="576" class="cv-mono" font-size="46" font-weight="400" fill="#8F958A">4</text><text x="236" y="576" class="cv-mono" font-size="46" font-weight="400" fill="#B9BEB2">validate through the CLI</text><text x="236" y="576" class="cv-mono" font-size="46" font-weight="500" fill="#F1F2EA" data-el="row-3" opacity="0">validate through the CLI</text></g><g><text x="150" y="656" class="cv-mono" font-size="46" font-weight="400" fill="#8F958A">5</text><text x="236" y="656" class="cv-mono" font-size="46" font-weight="400" fill="#B9BEB2">compose workflows</text><text x="236" y="656" class="cv-mono" font-size="46" font-weight="500" fill="#F1F2EA" data-el="row-4" opacity="0">compose workflows</text></g><g><text x="150" y="736" class="cv-mono" font-size="46" font-weight="400" fill="#8F958A">6</text><text x="236" y="736" class="cv-mono" font-size="46" font-weight="400" fill="#B9BEB2">integration + E2E tests</text><text x="236" y="736" class="cv-mono" font-size="46" font-weight="500" fill="#F1F2EA" data-el="row-5" opacity="0">integration + E2E tests</text></g><g><text x="150" y="816" class="cv-mono" font-size="46" font-weight="400" fill="#8F958A">7</text><text x="236" y="816" class="cv-mono" font-size="46" font-weight="400" fill="#B9BEB2">fix at the layer that owns it</text><text x="236" y="816" class="cv-mono" font-size="46" font-weight="500" fill="#F1F2EA" data-el="row-6" opacity="0">fix at the layer that owns it</text></g><rect x="334.8" y="296" width="24" height="50" rx="4" fill="#84DE02" data-el="cursor"/><path d="M-94 132H1314A46 46 0 0 1 1360 178V1066A46 46 0 0 1 1314 1112H-94A46 46 0 0 1 -140 1066V178A46 46 0 0 1 -94 132Z" fill="none" stroke="#FFFFFF" stroke-opacity="0.1" stroke-width="1.5"/></g><g><circle cx="1360" cy="382" r="68" fill="#84DE02"/><g data-el="repeat" class="cv-pop"><g transform="translate(1331 341) scale(2.4167)" fill="none" stroke="#141713" stroke-width="2.1" stroke-linecap="round" stroke-linejoin="round"><path d="M19.8 11A8 8 0 0 0 5.6 7.2"/><path d="M4.2 13a8 8 0 0 0 14.2 3.8"/><path d="M5.2 3.4v4.1h4.1"/><path d="M18.8 20.6v-4.1h-4.1"/></g></g><text x="1360" y="428" class="cv-sans" font-size="24" font-weight="600" fill="#141713" text-anchor="middle">repeat</text></g></svg>
